<?xml version="1.0" standalone="no"?><!DOCTYPE svg PUBLIC "-//W3C//DTD SVG 1.1//EN" "http://www.w3.org/Graphics/SVG/1.1/DTD/svg11.dtd"><svg t="1766998315999" class="icon" viewBox="0 0 1024 1024" version="1.1" xmlns="http://www.w3.org/2000/svg" p-id="5023" xmlns:xlink="http://www.w3.org/1999/xlink" width="200" height="200"><path d="M512 1013.76l-245.1968-213.3504S358.912 875.52 512 875.52c149.8112 0 245.1968-75.008 245.1968-75.008z" fill="#FFFFFF" p-id="5024"></path><path d="M512 430.08m-419.84 0a419.84 419.84 0 1 0 839.68 0 419.84 419.84 0 1 0-839.68 0Z" fill="#AA9448" opacity=".9" p-id="5025"></path><path d="M512 70.5024a17.2032 17.2032 0 0 1 17.2032 17.2544v70.0928c15.36 16.4864 44.3392 37.6832 96.256 53.2992a134.5024 134.5024 0 0 1 35.84 11.2128c28.8256 14.5408 16.2816 30.72-5.12 42.3936v-0.3072V317.44a214.6816 214.6816 0 0 1 54.3744 16.0256c38.4 19.2512 21.6064 40.96-6.9632 56.32v-0.3072 60.416a157.696 157.696 0 0 1 30.1056 11.2128c42.9056 21.504 24.1664 45.6192-7.8848 62.72l-0.3072-0.3072v93.44h16.3328a32.8704 32.8704 0 0 1 0 65.7408H282.368a33.024 33.024 0 0 1 0-65.9968h16.2816v-93.3376l-0.256 0.3072C266.24 506.4192 247.808 482.3552 290.7136 460.8a186.1632 186.1632 0 0 1 30.0544-11.2128V389.12v0.3072c-28.7232-15.36-45.3632-37.12-6.9632-56.32A206.0288 206.0288 0 0 1 367.9232 317.44V264.8064c-21.6064-11.6736-34.0992-27.8528-5.12-42.3936a161.5872 161.5872 0 0 1 35.84-11.2128C450.56 195.584 479.0272 174.5408 494.592 158.0544V87.7568a17.2032 17.2032 0 0 1 17.408-17.2544z m-24.5248 465.92h-30.1056a14.1824 14.1824 0 0 0-14.2336 14.2336v51.6608a14.1824 14.1824 0 0 0 4.1984 10.24 13.9776 13.9776 0 0 0 10.24 4.1984h29.9008a14.2336 14.2336 0 0 0 14.1824-14.2336v-52.0192a13.9776 13.9776 0 0 0-4.096-10.24 13.824 13.824 0 0 0-10.24-4.1472z m78.7456 0h-29.9008a14.1824 14.1824 0 0 0-14.2336 14.2336v51.6608a14.2336 14.2336 0 0 0 14.2336 14.2336h29.9008a14.2336 14.2336 0 0 0 14.1824-14.2336v-51.8144a14.08 14.08 0 0 0-14.1824-14.2336z m0 0" fill="#FFFFFF" p-id="5026"></path></svg>